<svg xmlns="http://www.w3.org/2000/svg" width="48" height="32" fill="none"><rect width="48" height="32" rx="4" fill="#fff"/><g fill="#296db6"><path d="M8.88 17.9v8.16h8.26l.86-1.22.84 1.22h5.05v-1.84h.56a4.93 4.93 0 0 0 1.5-.22v2.06h3.43V24.6l1.16 1.46h15.62a3.35 3.35 0 0 0 1.82-.5V29a4 4 0 0 1-3.89 3H4a4 4 0 0 1-4-4V15.4h2.28l.47-1.22h1.12l.46 1.22h18.34v-1.46l1.16 1.46h4.81v-.74a4 4 0 0 0 2.42.74h2.87l.46-1.22h1.12L36 15.4h4.9v-1.58l1 1.58h3.38V7.24h-3.59V8.9l-1.07-1.66h-3.14v2.1l-1-2.1h-5.34a3.88 3.88 0 0 0-2.5.82v-.82H11L10.4 9l-.6-1.8h-4v2.1l-.94-2.1H1.6L0 11V4a4 4 0 0 1 4-4h40.09A4 4 0 0 1 48 3v14.9H18.86L18 19.1l-.84-1.2H8.88z"/><path d="M21.319 19.2h3.11v-.04a1.81 1.81 0 0 1 1.96 1.88 1.86 1.86 0 0 1-2 1.9h-1.7v1.86h-1.37v-5.6zm-6.61 1.16v-1.2h-4.53v5.64h4.53v-1.2h-3.17v-1h3.11v-1.22h-3.11v-1l3.17-.02zM18.8 22l2.26-2.8H19.4L18 20.94l-1.39-1.78h-1.7L17.2 22 15 24.8h1.64L18 23l1.36 1.82h1.72L18.8 22zm5.509-.22h-1.62v-1.42h1.62a.69.69 0 1 1 0 1.38v.04zm7.86-.99c.116.983-.587 1.874-1.57 1.99l1.89 2.02h-1.71l-1.68-2h-.62v2h-1.36v-5.58h3.06c.983-.116 1.874.587 1.99 1.57zm-2.11.87h-1.58v-1.3h1.58a.62.62 0 0 1 .7.62.61.61 0 0 1-.7.62v.06zm7.3-2.44v1.2l-3.17-.04v1h3.09v1.22h-3.09v1h3.17v1.2h-4.55v-5.58h4.55zm3.77 2.2h-1.31a.51.51 0 1 1 0-1h2.43l.54-1.2h-2.93a1.74 1.74 0 0 0-1.94 1.76 1.57 1.57 0 0 0 1.76 1.66h1.32a.51.51 0 1 1 0 1h-2.92v1.2h2.92a1.75 1.75 0 0 0 1.89-1.84 1.55 1.55 0 0 0-1.76-1.62v.04zm6.33-1h-2.43l-.03-.04a.51.51 0 1 0 0 1h1.36a1.62 1.62 0 0 1 1.64.94v1.34a1.77 1.77 0 0 1-1.84 1.16h-2.87v-1.2h2.89a.51.51 0 1 0 0-1h-1.29a1.57 1.57 0 0 1-1.76-1.66 1.74 1.74 0 0 1 1.94-1.76h2.93l-.54 1.22zM25.45 10.28a1.75 1.75 0 0 1-1.54 1.78l1.88 2.08h-1.7l-1.68-2h-.62v2H20.4V8.5h3.05a1.77 1.77 0 0 1 2 1.78zM4.23 8.5H2.45L0 14.14h1.48L2 13h2.63l.48 1.18h1.54L4.23 8.5zm-1.85 3.36l.55-1.32.36-.88.36.88.54 1.32H2.38zm8.22-.1l1.1-3.26h2.19v5.64h-1.32v-3.7-.86l-.26.86-1.31 3.7H9.8l-1.28-3.7-.28-.86v.86 3.7H6.91V8.5h2.21l1.12 3.26.18.62.18-.62zm8.9-2.06V8.5H15v5.64h4.5v-1.2h-3.17v-1h3.09v-1.22h-3.09v-1l3.17-.02zm3.87 1.24h-1.58V9.7h1.58a.63.63 0 0 1 .7.62.61.61 0 0 1-.7.62zm2.74 3.2V8.5h1.37v5.64h-1.37zm5-4.42h1.47V8.5H31a2.55 2.55 0 0 0-2.7 2.78v.08a2.5 2.5 0 0 0 2.62 2.78H31l.55-1.2h-.45a1.4 1.4 0 0 1-1.46-1.58v-.08a1.4 1.4 0 0 1 1.46-1.56h.01zm2.98-1.22h1.8l2.41 5.68h-1.54L36.28 13h-2.67l-.48 1.14h-1.46l2.42-5.64zm-.04 3.36l.52-1.32.36-.88.34.88.54 1.32h-1.76zm8.56-.36v-3H44v5.64h-1.65l-2.09-3.18-.36-.62V11v3.18h-1.34V8.54h1.67l2 3 .38.64v-.68z" fill-rule="evenodd"/></g></svg>
