<svg xmlns="http://www.w3.org/2000/svg" xmlns:xlink="http://www.w3.org/1999/xlink" width="48" height="32" fill="none"><style><![CDATA[.B{fill:#211e1f}.C{fill-rule:evenodd}.D{fill:#0779be}]]></style><rect width="48" height="32" rx="4" fill="#fff"/><g class="C"><path d="M4 0h40a4 4 0 0 1 4 4v24a4 4 0 0 1-4 4H4a4 4 0 0 1-4-4V4a4 4 0 0 1 4-4zm42 4a2 2 0 0 0-2-2H4a2 2 0 0 0-2 2v24a2 2 0 0 0 2 2h40a2 2 0 0 0 2-2V4z" class="D"/><path d="M13.13 20.73c0 .65-.38 2.27-2.69 2.27H8.63v-.17l.026-.003c.373-.038.564-.058.564-.497v-3.15c0-.56-.3-.56-.59-.56v-.17h1.89a2.38 2.38 0 0 1 2.61 2.28zm-2.76-2.04c-.17-.01-.34-.01-.51 0l-.04 3.54c0 .5.36.56.68.56a1.81 1.81 0 0 0 1.87-2 2 2 0 0 0-2-2.1z" class="B"/></g><path d="M14.75 23v-.17h-.11c-.19 0-.33 0-.33-.22v-2.5-.09a.27.27 0 0 0-.12 0 6.72 6.72 0 0 1-.7.24v.1c.24.13.34.17.34.46v1.76c0 .22-.13.22-.31.22h-.13v.2h1.4-.04zm-.7-3.94a.32.32 0 1 0 0-.64.32.32 0 0 0 0 .64h0zm4.15 3.81h-.11c-.19 0-.33 0-.33-.22V21c0-.5-.19-.91-.75-.91a1.88 1.88 0 0 0-1.12.49v-.42-.07a8.24 8.24 0 0 1-.86.31v.13c.3.12.38.19.38.43h0v1.72c0 .22-.13.22-.32.22h-.11v.1h1.39v-.17h-.12c-.18 0-.32 0-.32-.22v-1.88a1.63 1.63 0 0 1 .75-.32.53.53 0 0 1 .6.56v1.68c0 .22-.13.22-.31.22h-.12V23h1.35v-.13z" class="B"/><path d="M20.63 22.4a1.53 1.53 0 0 1-1.21.74 1.31 1.31 0 0 1-1.28-1.36c0-1.28.86-1.66 1.31-1.66a1 1 0 0 1 1.1 1v.12h-.06-1.83a2.17 2.17 0 0 0 0 .38 1.08 1.08 0 0 0 1 1.12 1.26 1.26 0 0 0 .88-.43l.09.09zm-1.21-2.13h.025-.025zm.032 0h.018zm0 0a.55.55 0 0 1 .528.6c0 .08 0 .16-.18.16h-1.08c.079-.463.342-.751.732-.76z" class="B C"/><path d="M20.919 22.87h-.18V23h1.69v-.17h-.36c-.19 0-.32 0-.32-.22v-1.49a.55.55 0 0 1 .48-.54c.23 0 .23.16.43.16a.31.31 0 0 0 .3-.33.35.35 0 0 0-.37-.35c-.39 0-.67.42-.83.67h0v-.58c0-.07 0-.09-.06-.09s-.32.17-.8.37v.1c.1 0 .34.09.34.29v1.83c-.01.22-.14.22-.32.22zm3.151.06a.87.87 0 0 1-.82-.8h-.12l.08.74a1.68 1.68 0 0 0 .79.23c.77 0 1.12-.46 1.12-.89 0-1-1.51-.79-1.51-1.55a.46.46 0 0 1 .51-.43.68.68 0 0 1 .71.64H25l-.05-.66a1.69 1.69 0 0 0-.74-.19.89.89 0 0 0-1 .84c0 1 1.42.8 1.42 1.57a.47.47 0 0 1-.56.5h0zm6.79-.14l.15-.95h-.15a1.33 1.33 0 0 1-1.31 1.13 2.12 2.12 0 0 1-1.94-2.26 1.85 1.85 0 0 1 1.83-2.07 1.25 1.25 0 0 1 1.4 1.07H31l-.07-.93a4.6 4.6 0 0 0-1.53-.35 2.4 2.4 0 0 0-2.47 2.3 2.32 2.32 0 0 0 2.49 2.45 3.68 3.68 0 0 0 1.44-.39h0zm1.769.21v-.17h-.11c-.19 0-.33 0-.33-.22v-4.5-.09s-.07 0-.14.07c-.214.115-.438.209-.67.28v.11c.24.07.34.08.34.51v3.62c0 .22-.13.22-.31.22h-.13V23h1.4-.05z" class="B"/><path d="M33 20.69v1.67a.7.7 0 0 0 .71.78 1.76 1.76 0 0 0 1.16-.55v.53h0c.308-.092.622-.162.94-.21v-.11h-.21c-.11 0-.19 0-.19-.12v-2.4-.12l-1 .09v.12c.23.06.54.14.54.26v1.76a1.47 1.47 0 0 1-.78.39c-.57 0-.57-.56-.57-.75v-1.68c0-.14 0-.19-.07-.19l-.84.05v.12c.31.03.31.19.31.36z" class="B"/><path d="M36.19 21.8V19c0-.386-.093-.409-.351-.473l-.029-.007v-.11a3.21 3.21 0 0 0 .67-.28l.15-.07c.05 0 .05.09.05.09v2.39a1.65 1.65 0 0 1 1-.47 1.27 1.27 0 0 1 1.21 1.37 1.65 1.65 0 0 1-1.56 1.71 1.92 1.92 0 0 1-.9-.23l-.2.15-.13-.07c.062-.397.092-.798.09-1.2zm1.14-1.42a1 1 0 0 0-.62.31l-.05 1.58a.7.7 0 0 0 .67.67c.71 0 1-.69 1-1.27a1.24 1.24 0 0 0-1-1.29z" class="B C"/><path d="M9.14 24.46h-.52 0v.14h.07c.13 0 .24 0 .25.19v1.85c0 .18-.12.19-.25.19H8.6V27h0 .52.56 0v-.13h-.03c-.13 0-.25 0-.25-.19v-1.91c0-.18.12-.19.25-.19h.07v-.14h0l-.58.02z" class="B"/><path d="M12.249 24.46h-.5 0v.14h.09c.11 0 .29 0 .3.32v1.3l-1.56-1.75h-.33-.41 0v.14h.06a.3.3 0 0 1 .31.3v1.5c0 .28-.07.43-.31.43h-.08V27h0 .49.45 0v-.13h-.08c-.26 0-.31-.09-.32-.4V25l1.8 2h.17 0v-.35V25c0-.41.16-.43.3-.43h.07v-.14h0l-.45.03z" class="B"/><path d="M15.15 24.33h0c0 .09-.08.09-.18.09h-1.85c-.09 0-.15 0-.18-.09h-.11 0c.005.097.005.193 0 .29v.3h0 .14c.06-.26.06-.31.32-.31h0 0 0 .56v1.88c0 .27-.08.27-.28.28h-.08V27h0 .6.57 0v-.13h-.08c-.17 0-.28 0-.28-.29v-1.93h.56c.23 0 .24.19.25.33h0l.13-.05h0v-.29-.29h0-.1l.01-.02z" class="B"/><path d="M17.27 26.32h0c-.1.4-.28.42-.7.42-.23 0-.42 0-.42-.22v-.81h.41c.24 0 .24.13.26.34h0 .13 0v-.4-.42h0-.14 0c0 .19-.06.29-.26.3h-.41v-.9h.48c.36 0 .39.17.41.4h0 .12 0v-.36-.2h0-.91-.88 0v.14h.06c.13 0 .24 0 .25.19v1.85c0 .18-.12.19-.25.19h-.06V27h0 .94 1 0 0c0-.18.08-.37.12-.56h0-.11l-.04-.12z" class="B"/><path d="M19.03 25.71l.6.89a.37.37 0 0 0 .37.27V27l-.39-.06h-.34c-.273-.362-.52-.743-.74-1.14h-.21v.8c.01.27.11.27.28.27h.06V27h-.61-.51v-.19h.08c.13 0 .24-.06.24-.18v-1.8c0-.25-.13-.25-.24-.25h-.08v-.14h.55.57c.44 0 .86.13.86.64a.67.67 0 0 1-.49.63zm-.56-.07c.35 0 .53-.12.53-.54a.46.46 0 0 0-.5-.46h-.19v1h.16z" class="B C"/><path d="M22.93 24.58v-.14h0-.44-.5 0v.14h.09c.11 0 .29 0 .3.32v1.3l-1.58-1.75h-.33-.41 0v.14h.06a.3.3 0 0 1 .31.3v1.49c0 .29-.07.44-.31.44h-.06V27h0 .49.45 0v-.13h-.08c-.26 0-.31-.09-.31-.4V25l1.79 2h.17 0v-.35V25c0-.41.16-.43.3-.43h.07l-.01.01z" class="B"/><path d="M25.043 26.417c.043.091.086.183.086.264a.22.22 0 0 0 .33.19V27h-.48-.54v-.13h.05c.09 0 .21-.02.21-.09a1.09 1.09 0 0 0-.07-.25l-.14-.4h-.78l-.11.36c-.032.088-.059.178-.08.27 0 .11.14.11.25.11h.06V27h-.43-.38v-.18a.31.31 0 0 0 .3-.22l.56-1.63c.057-.146.104-.297.14-.45a1.46 1.46 0 0 0 .33-.15v.09l.65 1.86.044.096zM24 24.89l-.31.95h.62l-.31-.95z" class="B C"/><path d="M27.46 24.33h0c0 .09-.08.09-.18.09h-1.84c-.09 0-.16 0-.18-.09h-.12 0c.01.096.01.194 0 .29v.31h.14c.05-.26.05-.31.31-.31h0 0 0 .57v1.88c0 .27-.09.27-.28.28h-.09V27h0 .6.58 0v-.13h-.08c-.17 0-.28 0-.28-.29v-1.93h.57c.22 0 .23.19.24.33h0l.13-.05h0c-.005-.097-.005-.193 0-.29v-.29h0-.1l.01-.02z" class="B"/><path d="M28.22 24.46h-.53 0v.14h.06c.13 0 .25 0 .25.19v1.85c0 .18-.12.19-.25.19h-.06V27h0 .52.56 0v-.13h-.07c-.13 0-.24 0-.24-.19v-1.91c0-.18.11-.19.24-.19h.07v-.14h0l-.55.02z" class="B"/><path d="M29.243 24.774a1.31 1.31 0 0 1 .936-.384 1.26 1.26 0 0 1 1.38 1.24A1.32 1.32 0 0 1 30.2 27a1.27 1.27 0 0 1-1.34-1.29 1.31 1.31 0 0 1 .384-.936zm1.786.936c0-.52-.28-1.13-.85-1.13-.61 0-.79.54-.79 1.01 0 .63.18 1.22.85 1.22s.79-.58.79-1.1z" class="B C"/><path d="M34.499 24.58v-.14h0-.43-.5 0v.14h.09c.1 0 .29 0 .29.32v1.3l-1.56-1.75h-.32-.41 0v.14h.06a.29.29 0 0 1 .3.3v1.5c0 .28-.07.43-.3.43h-.06V27h0 .48.46 0v-.13h-.07c-.27 0-.31-.09-.32-.4V25l1.79 2h.16 0c-.01-.116-.01-.234 0-.35V25c0-.41.15-.43.3-.43h.07l-.03.01z" class="B"/><path d="M36.57 26.32c.037.122.081.242.13.36a.21.21 0 0 0 .27.19V27h-.49-.53v-.13H36c.08 0 .2-.02.2-.09a1.24 1.24 0 0 0-.07-.25l-.13-.4h-.65l-.11.36a1.2 1.2 0 0 0-.08.27c0 .11.13.11.25.11V27h-.43-.38v-.18a.31.31 0 0 0 .29-.22l.57-1.63c.057-.146.104-.297.14-.45.112-.038.219-.088.32-.15v.09l.65 1.86zm-1.32-.48h.62l-.3-.95-.32.95z" class="B C"/><path d="M39 26.31h0a.77.77 0 0 1-.11.25.51.51 0 0 1-.33.18h-.46c-.11 0-.2-.05-.2-.19v-1.79c0-.18.09-.18.22-.18h.11v-.14h0-.54-.56 0v.14h.06c.13 0 .25 0 .25.19v1.82c0 .21-.12.22-.25.22h-.06V27h0 .94.93 0 0c0-.2.09-.4.13-.6h0H39v-.09z" class="B"/><g class="C B"><path d="M38.64 24.737a.37.37 0 0 1 .36-.377.36.36 0 0 1 .38.37.37.37 0 0 1-.74.006zm.06-.037a.3.3 0 0 0 .512.212A.3.3 0 0 0 39 24.4a.3.3 0 0 0-.3.3z"/><path d="M39.16 24.63a.11.11 0 0 1-.09.11v.08l.08.09h-.07c-.026 0-.048-.034-.079-.082l-.061-.088v.12h-.1v-.28-.05h.19c.07 0 .13.03.13.1zm-.2-.06v.17h.01c.07 0 .07-.04.07-.09a.07.07 0 0 0-.08-.08z"/></g><use xlink:href="#B" class="D"/><use xlink:href="#C" fill="#fff" class="C"/><use xlink:href="#B" class="D"/><use xlink:href="#C" fill="#fff" class="C"/><defs ><path id="B" d="M25.36 17.59a6.55 6.55 0 0 0 6.58-6.24A6.43 6.43 0 0 0 25.36 5h-3a6.2 6.2 0 0 0-6.34 6.35 6.31 6.31 0 0 0 6.34 6.24h3z"/><path id="C" d="M22.419 5.52a5.76 5.76 0 1 0 0 11.52 5.76 5.76 0 1 0 0-11.52zm-3.65 5.76a3.66 3.66 0 0 1 2.34-3.41v6.82a3.65 3.65 0 0 1-2.34-3.41zm7.297 0a3.65 3.65 0 0 0-2.348-3.41v6.82a3.65 3.65 0 0 0 2.348-3.41z"/></defs></svg>
