<svg xmlns="http://www.w3.org/2000/svg" width="86" height="58" fill="none"><rect x="1" y="1.203" width="84" height="56" rx="4" stroke="#acacac"/><path d="M35.702 29.102c0 5.44-4.411 9.852-9.852 9.852S16 34.542 16 29.102s4.41-9.852 9.851-9.852 9.852 4.412 9.852 9.852zm17.682-8.105c0-1.015.802-1.794 1.864-1.794s1.864.778 1.864 1.794-.802 1.794-1.864 1.794-1.864-.779-1.864-1.794z" fill="#ed1c24"/><path d="M53.396 24.801h3.703v13.484c0 .424-.264.688-.687.688h-3.016V24.801zm7.802 2.641l-2.195-.317v-2.328h2.195v-4.205H64.9v4.205h3.095v2.645H64.9v6.797c0 1.031.503 1.56 1.429 1.56.687 0 1.375-.132 2.063-.317l.608 2.99c-.953.264-1.931.448-2.883.448-3.253 0-4.92-1.64-4.92-4.284v-7.194z" fill="#1a1a1a"/><path d="M23.436 27.761c.099-1.146.975-2.244 2.588-2.244 1.315 0 2.267 1.023 2.246 2.244h-4.833zm5.368 3.34c-.611.829-1.415 1.44-2.611 1.44-1.414 0-2.464-.902-2.757-2.295h8.451V29.1c0-3.667-2.171-6.331-5.889-6.331-3.781 0-6.222 2.762-6.222 6.331 0 3.783 2.928 6.223 6.587 6.223 1.906 0 3.831-.856 5-2.342l-2.559-1.88z" fill="#fff"/><path d="M41.871 35.21c.231.097.488.169.766.218.286.047.674.073 1.176.073 1.104 0 1.951-.36 2.56-1.073.612-.718.908-1.651.908-2.808 0-.426-.049-.84-.152-1.246a3.57 3.57 0 0 0-.479-1.085c-.21-.316-.494-.578-.823-.781-.341-.205-.753-.303-1.234-.303-.927 0-1.612.258-2.055.769-.448.512-.668 1.19-.668 2.039v4.197zM37.7 19.203h4.17v6.741c.389-.402.91-.721 1.578-.954.672-.232 1.328-.347 1.982-.347.97 0 1.827.185 2.577.552a5.49 5.49 0 0 1 1.897 1.489c.513.629.9 1.352 1.175 2.171.268.821.408 1.693.408 2.623 0 1.097-.181 2.108-.541 3.037s-.87 1.719-1.548 2.375c-.67.655-1.502 1.166-2.485 1.533s-2.102.55-3.365.55c-1.154 0-2.254-.106-3.28-.319-1.038-.212-1.886-.433-2.568-.663V19.203z" fill="#1a1a1a"/></svg>
