<svg xmlns="http://www.w3.org/2000/svg" width="48" height="32" fill="none"><rect width="48" height="32" rx="4" fill="#000"/><path d="M12.629 11.819c.375-.125.775-.192 1.191-.192 1.817 0 3.335 1.29 3.682 3.006l2.576-.525C19.487 11.194 16.909 9 13.819 9a6.35 6.35 0 0 0-2.024.328l.834 2.491z" fill="#ffcb05"/><path d="M9.169 20.267l1.754-1.962a3.72 3.72 0 0 1-1.276-2.805c0-1.115.494-2.117 1.276-2.802l-1.754-1.964C7.839 11.9 7 13.603 7 15.499s.839 3.601 2.169 4.768z" fill="#00a4e0"/><path d="M17.501 16.367c-.349 1.715-1.864 3.004-3.68 3.004-.417 0-.819-.067-1.192-.194l-.834 2.496c.637.212 1.317.327 2.026.327a6.39 6.39 0 0 0 6.256-5.105l-2.576-.529z" fill="#ef4123"/><path d="M22.419 18.369a4.59 4.59 0 0 1-.271-.52 3.81 3.81 0 0 1-.084-2.888c.382-1.039 1.111-1.833 2.055-2.24 1.185-.509 2.495-.41 3.632.264.721.413 1.233 1.051 1.621 1.954l.136.344-7.089 3.086zm2.367-4.115c-.842.361-1.276 1.15-1.185 2.073l3.565-1.533c-.614-.719-1.411-.957-2.379-.541zm2.823 3.334l-.076-.049c-.213.344-.545.625-.963.806-.797.346-1.535.257-2.066-.208l-.049.074-.906 1.35c.225.156.466.287.718.393a3.75 3.75 0 0 0 3.028-.042c.728-.316 1.3-.796 1.69-1.405l-1.375-.918zm4.375-6.855v7.512l1.17.473-.664 1.548-1.291-.537a1.46 1.46 0 0 1-.636-.534c-.143-.22-.249-.524-.249-.93v-7.532h1.67zm3.03 5.599c0-.64.284-1.214.731-1.603l-1.201-1.336c-.814.719-1.327 1.768-1.327 2.937a3.91 3.91 0 0 0 1.323 2.94l1.199-1.336a2.12 2.12 0 0 1-.726-1.6zm2.132 2.131c-.235 0-.464-.04-.676-.111l-.573 1.701c.392.131.81.203 1.248.203 1.9.002 3.486-1.345 3.854-3.133l-1.762-.359a2.13 2.13 0 0 1-2.09 1.699zm.005-6.054a3.97 3.97 0 0 0-1.246.2l.568 1.702a2.15 2.15 0 0 1 .676-.109 2.13 2.13 0 0 1 2.088 1.708L41 15.554a3.93 3.93 0 0 0-3.849-3.145z" fill="#fff"/></svg>
