<svg xmlns="http://www.w3.org/2000/svg" width="49" height="36" fill="none" xmlns:v="https://vecta.io/nano"><path d="M49 28.727c.001.955-.196 1.901-.579 2.783s-.944 1.684-1.652 2.36a7.66 7.66 0 0 1-2.474 1.577 7.95 7.95 0 0 1-2.918.554H0V7.267c.001-1.928.804-3.776 2.234-5.139S5.602 0 7.623 0H49v28.727z" fill="#fff"/><path d="M35.508 21.366h3.152a2.42 2.42 0 0 0 .375-.034 1.45 1.45 0 0 0 .795-.485c.2-.242.309-.542.309-.85a1.34 1.34 0 0 0-.309-.851 1.45 1.45 0 0 0-.795-.485 2.78 2.78 0 0 0-.375-.034h-3.152v2.738zm2.783-18.944c-.715 0-1.423.134-2.084.395a5.47 5.47 0 0 0-1.766 1.126 5.18 5.18 0 0 0-1.18 1.685c-.273.63-.414 1.305-.414 1.987v5.392h7.702l.533.019c1.743.082 3.029.938 3.029 2.419 0 1.166-.878 2.16-2.478 2.384v.059c1.756.117 3.119 1.046 3.119 2.512 0 1.58-1.484 2.595-3.464 2.595h-8.442v10.582h7.979c.715 0 1.423-.134 2.084-.395a5.47 5.47 0 0 0 1.767-1.125 5.18 5.18 0 0 0 1.181-1.684 4.98 4.98 0 0 0 .415-1.987V2.432l-7.981-.01zm1.48 13.397a1.2 1.2 0 0 0-.304-.817 1.31 1.31 0 0 0-.793-.424c-.103-.014-.207-.021-.312-.023h-2.854v2.528h2.854a2.73 2.73 0 0 0 .312-.023 1.31 1.31 0 0 0 .793-.424 1.2 1.2 0 0 0 .305-.817zM8.166 2.422c-1.444.001-2.829.548-3.849 1.522s-1.594 2.294-1.594 3.67v12.82c1.537.705 3.106 1.166 4.711 1.166 1.881 0 2.917-1.097 2.917-2.57v-6.024h4.682v6.024c0 2.355-1.517 4.245-6.721 4.245a24.43 24.43 0 0 1-5.589-.645v10.94h7.986c1.444 0 2.828-.547 3.849-1.52a5.07 5.07 0 0 0 1.594-3.67V2.426l-7.986-.004zm15.066 0a5.68 5.68 0 0 0-2.085.394 5.47 5.47 0 0 0-1.768 1.125 5.19 5.19 0 0 0-1.182 1.685c-.274.63-.415 1.306-.415 1.988v6.796c1.381-1.128 3.767-1.834 7.641-1.674a25.88 25.88 0 0 1 4.276.628v2.198a11.03 11.03 0 0 0-4.124-1.147c-2.941-.209-4.711 1.159-4.711 3.585s1.769 3.795 4.711 3.581a11.17 11.17 0 0 0 4.124-1.145v2.196a25.98 25.98 0 0 1-4.276.628c-3.874.165-6.26-.54-7.641-1.674v11.987h7.99a5.67 5.67 0 0 0 2.083-.395 5.47 5.47 0 0 0 1.766-1.125 5.18 5.18 0 0 0 1.18-1.684 4.98 4.98 0 0 0 .414-1.986V2.428l-7.983-.006z" fill="#153d8a"/></svg>