<svg xmlns="http://www.w3.org/2000/svg" width="48" height="32" fill="none"><rect width="48" height="32" rx="4" fill="#f2f0ec"/><g opacity=".01"><path fill="#fff" d="M4.65 3.2h38.71v25.6H4.65z"/></g><path fill="#f26122" d="M18.9 7.66h10.21v16.68H18.9z"/><path d="M20.001 16a10.58 10.58 0 0 1 4-8.34A10.61 10.61 0 0 0 9.648 23.199a10.61 10.61 0 0 0 14.353 1.141 10.58 10.58 0 0 1-4-8.34z" fill="#ea1d25"/><g fill="#f69e1e"><path fill-rule="evenodd" d="M40.821 22.16v.41h-.07v-.31l-.11.27h-.08l-.12-.27v.31h-.07v-.41h.1l.13.29.12-.29h.1zm-.68.07v.34h-.06v-.34h-.14v-.07h.35v.07h-.15z"/><path d="M41.16 16A10.61 10.61 0 0 1 24 24.34c4.6-3.622 5.397-10.286 1.78-14.89A10.4 10.4 0 0 0 24 7.66 10.61 10.61 0 0 1 41.16 16z"/></g></svg>
