<svg xmlns="http://www.w3.org/2000/svg" xmlns:xlink="http://www.w3.org/1999/xlink" width="81" height="48"><g fill="none" fill-rule="evenodd"><rect width="80.5" height="47.5" x=".25" y=".25" stroke="#213e75" stroke-width=".5" rx="3"/><path fill="#213e75" d="M-.774 22.957h82.316v26.744H-.774z"/><g fill-rule="nonzero"><path d="M36.513 4H23.184c-1.033 0-1.695 1.08-1.212 1.978l1.334 2.481h-2.417a.89.89 0 0 0-.761.423.86.86 0 0 0-.026.858l4.289 7.978a.891.891 0 0 0 .785.465c.33 0 .632-.18.786-.465l1.164-2.155 1.462 2.719c.514.956 1.907.958 2.423.003l6.681-12.357C38.164 5.054 37.52 4 36.513 4zm-5.987 5.28l-2.881 5.329a.593.593 0 0 1-.523.309.593.593 0 0 1-.522-.309l-2.853-5.307a.573.573 0 0 1 .015-.571.594.594 0 0 1 .506-.283h5.75c.202 0 .389.104.493.275s.11.381.015.557zm19.147.273h-1.461v4.916a.17.17 0 0 1-.172.169h-1.127a.17.17 0 0 1-.172-.17V9.554h-1.47a.167.167 0 0 1-.12-.044.16.16 0 0 1-.052-.117v-.869a.16.16 0 0 1 .051-.116.167.167 0 0 1 .121-.045h4.402a.172.172 0 0 1 .18.161v.87a.172.172 0 0 1-.18.16zm4.764 5.052c-.3.042-.803.11-1.726.11-1.103 0-2.078-.28-2.078-1.817v-2.805c0-1.537.984-1.807 2.086-1.807.924 0 1.419.067 1.718.11.12.016.171.059.171.169v.786a.17.17 0 0 1-.17.17h-1.804c-.402 0-.547.134-.547.573v.77h2.282a.17.17 0 0 1 .171.168v.803a.17.17 0 0 1-.17.169h-2.283v.895c0 .439.145.574.547.574h1.803a.17.17 0 0 1 .171.17v.785c0 .109-.051.16-.17.177zm6.451.031h-1.371c-.112 0-.164-.035-.224-.127l-1.189-1.847-1.077 1.807c-.06.101-.12.169-.215.169h-1.276c-.086 0-.129-.051-.129-.11a.154.154 0 0 1 .017-.06l1.868-3.05-1.887-2.895a.118.118 0 0 1-.017-.05.123.123 0 0 1 .13-.11h1.387c.095 0 .164.084.215.16l1.103 1.705 1.068-1.705c.043-.076.12-.16.215-.16h1.276a.123.123 0 0 1 .129.11.118.118 0 0 1-.017.05l-1.878 2.914 1.958 3.032a.186.186 0 0 1 .026.084c0 .05-.043.083-.112.083zm-17.78-6.273a.133.133 0 0 0-.13.105l-1.26 4.497c-.018.092-.044.126-.122.126s-.105-.035-.122-.126l-1.261-4.498a.133.133 0 0 0-.132-.105h-1.24c-.04 0-.08.018-.105.05a.126.126 0 0 0-.025.109l1.556 5.208c.205.615.704.909 1.338.909.604 0 1.131-.308 1.338-.907l1.529-5.21a.126.126 0 0 0-.026-.11.136.136 0 0 0-.105-.049l-1.233.001z" fill="#f71963"/><path fill="#fff" d="M37.503 39c-.799 0-1.415-.26-1.85-.782S35 36.958 35 36.004s.222-1.691.665-2.216S36.732 33 37.537 33c.46 0 1 .084 1.618.251v.76c-.704-.27-1.246-.405-1.628-.405-.558 0-.99.21-1.295.63s-.458 1.011-.458 1.776c0 .728.163 1.303.49 1.724s.771.63 1.336.63c.486 0 1.006-.165 1.562-.497v.695c-.507.29-1.06.436-1.66.436zm2.68-.077v-5.77h2.91v.613h-2.171v1.851h1.82v.605h-1.82v2.09h2.323v.611h-3.063zm3.926 0v-5.77h1.559c.494 0 .873.123 1.136.367s.395.6.395 1.064c0 .77-.347 1.315-1.04 1.638l1.719 2.701h-.898l-1.465-2.44h-.683v2.44h-.723zm.706-3.077h.23c.894 0 1.34-.399 1.34-1.196 0-.587-.374-.88-1.123-.88h-.447v2.076zm4.973 3.077v-5.157h-1.832v-.612h4.397v.612h-1.832v5.157h-.733zm3.272 0v-5.77h.707v5.77h-.707zm1.963 0v-5.77h2.905v.613h-2.167v1.933h1.82v.605h-1.82v2.62h-.738zm3.848 0v-5.77h.706v5.77h-.706zm1.963 0v-5.77h2.91v.613h-2.171v1.851h1.82v.605h-1.82v2.09h2.323v.611h-3.062zm3.847 0v-5.77h1.715c.511 0 .925.065 1.24.192a1.93 1.93 0 0 1 .817.647c.365.483.547 1.12.547 1.91 0 .959-.227 1.702-.68 2.23s-1.09.791-1.913.791H64.68zm.786-.615h.943c.673 0 1.15-.201 1.43-.604.302-.428.453-1.003.453-1.724 0-.677-.148-1.21-.445-1.596a1.374 1.374 0 0 0-.645-.484c-.25-.087-.627-.13-1.13-.13h-.606v4.538z"/></g><path fill="#006b72" d="M11 30.377L27.707 29l3.661 9.028-15.297 4.926z"/><g fill="#fff"><g fill-rule="nonzero"><use xlink:href="#B"/><use xlink:href="#B"/><use xlink:href="#C"/><use xlink:href="#C"/><path d="M26.103 38.523v-5.047h1.733v5.047z"/><path d="M26.103 38.523v-5.047h1.733v5.047z"/></g><ellipse cx="26.911" cy="31.848" rx="1.103" ry="1.058"/></g><path fill="#10b43f" stroke="#fff" stroke-width=".5" d="M31.967 32.566c.507-.548 1.684-1.195 1.31-.7-1.933 2.271-3.747 5.564-4.971 8.252-.282.532-1.243 1.07-1.69.506-1.25-1.037-3.398-2.367-2.495-2.958s1.642.21 3.063 1.297c1.343-2.27 2.968-4.39 4.783-6.397z"/></g><defs ><path id="B" d="M14.387 38.523v-5.047h2.558c.892 0 1.529.103 1.91.309s.573.55.573 1.031c0 .546-.255.97-.766 1.274s-1.225.455-2.144.455h-.634v1.978h-1.497zm1.497-2.686h.306c.538 0 .963-.081 1.274-.243s.468-.38.468-.657c0-.486-.479-.728-1.436-.728h-.612v1.628z"/><path id="C" d="M25.021 38.21c-.537.209-1.178.313-1.922.313-.908 0-1.616-.222-2.123-.666s-.76-1.063-.76-1.858c0-.81.255-1.432.766-1.869s1.239-.654 2.185-.654a8.9 8.9 0 0 1 1.801.185v.783c-.676-.206-1.243-.309-1.7-.309-.584 0-1.035.161-1.352.483s-.476.777-.476 1.368c0 .58.17 1.033.512 1.358s.814.487 1.42.487a4.15 4.15 0 0 0 1.649-.357v.737z"/></defs></svg>
