<svg xmlns="http://www.w3.org/2000/svg" width="30" height="20" viewBox="0 0 13 8"><rect width="13" height="8" ry=".563" fill="#5bbeb1" paint-order="fill markers stroke"/><g fill="#fff"><path d="M8.472 5.805a.991.991 0 01-.705-.292L6.748 4.495a.194.194 0 00-.267 0L5.459 5.517a.991.991 0 01-.705.292h-.2L5.842 7.1a1.031 1.031 0 001.458 0l1.293-1.294zM4.757 2.21c.266 0 .517.103.705.292l1.022 1.022a.19.19 0 00.268 0L7.77 2.505a.991.991 0 01.705-.291h.123L7.304.92a1.031 1.031 0 00-1.458 0l-1.29 1.29z"/><path d="M9.662 3.281L8.881 2.5a.144.144 0 01-.056.01H8.47a.702.702 0 00-.493.205L6.959 3.733a.487.487 0 01-.692 0L5.245 2.711a.702.702 0 00-.493-.204h-.437a.154.154 0 01-.052-.01l-.785.784a1.031 1.031 0 000 1.458l.785.785a.154.154 0 01.052-.01h.437a.702.702 0 00.493-.205l1.022-1.022a.5.5 0 01.692 0l1.018 1.018c.13.13.31.204.493.204h.355a.17.17 0 01.056.011l.781-.781a1.031 1.031 0 000-1.459"/></g></svg>
